<?xml version="1.0" encoding="UTF-8"?>
<svg width="331px" height="111px" viewBox="0 0 331 111" version="1.1" xmlns="http://www.w3.org/2000/svg" xmlns:xlink="http://www.w3.org/1999/xlink">
    <!-- Generator: Sketch 43.2 (39069) - http://www.bohemiancoding.com/sketch -->
    <title>Group2x</title>
    <desc>Created with Sketch.</desc>
    <defs>
        <path d="M73.928,14.912 C74.96,16.448 76.688,17.216 78.8,17.216 C82.28,17.216 84.392,15.344 84.392,10.448 L84.392,0.44 L81.608,0.44 L81.608,10.448 C81.608,13.736 80.624,14.792 78.68,14.792 C77.6,14.792 76.784,14.312 76.256,13.592 L73.928,14.912 Z M113.768,2.936 C112.592,1.112 110.744,0.224 108.104,0.224 C104.216,0.224 102.584,2.312 102.584,4.808 C102.584,7.616 104.384,9.152 107.576,9.824 C110.456,10.448 111.2,11.264 111.2,12.584 C111.2,13.784 110.48,14.792 108.2,14.792 C106.304,14.792 105.32,14.168 104.336,12.992 L102.152,14.504 C103.52,16.352 105.512,17.216 108.344,17.216 C112.328,17.216 113.984,14.936 113.984,12.464 C113.984,9.488 112.256,8.24 108.92,7.52 C106.616,7.016 105.368,6.392 105.368,4.808 C105.368,3.416 106.376,2.648 108.08,2.648 C109.952,2.648 110.84,3.32 111.656,4.448 L113.768,2.936 Z M143.336,5.576 C142.784,1.976 140.6,0.224 137.312,0.224 C133.616,0.224 131.12,2.456 131.12,7.664 L131.12,9.776 C131.12,14.984 133.616,17.216 137.312,17.216 C140.6,17.216 142.76,15.584 143.312,11.864 L140.648,11.864 C140.216,13.88 139.208,14.792 137.312,14.792 C135.104,14.792 133.904,13.304 133.904,9.776 L133.904,7.664 C133.904,4.088 135.104,2.648 137.312,2.648 C139.136,2.648 140.216,3.56 140.648,5.576 L143.336,5.576 Z M172.52,9.776 C172.52,14.984 170.024,17.216 166.304,17.216 C162.608,17.216 160.112,14.984 160.112,9.776 L160.112,7.664 C160.112,2.456 162.608,0.224 166.304,0.224 C170.024,0.224 172.52,2.456 172.52,7.664 L172.52,9.776 Z M162.896,7.664 L162.896,9.776 C162.896,13.352 164.096,14.792 166.304,14.792 C168.512,14.792 169.736,13.352 169.736,9.776 L169.736,7.664 C169.736,4.088 168.512,2.648 166.304,2.648 C164.096,2.648 162.896,4.088 162.896,7.664 Z M199.712,0.44 L199.712,11.84 L192.896,0.44 L190.496,0.44 L190.496,17 L193.184,17 L193.184,5.744 L199.928,17 L202.4,17 L202.4,0.44 L199.712,0.44 Z M221.048,0.44 L221.048,17 L223.832,17 L223.832,10.016 L230.48,10.016 L230.48,7.616 L223.832,7.616 L223.832,2.864 L231.2,2.864 L231.2,0.44 L221.048,0.44 Z" id="path-1"></path>
        <filter x="-2.2%" y="-14.7%" width="104.5%" height="141.2%" filterUnits="objectBoundingBox" id="filter-2">
            <feOffset dx="0" dy="1" in="SourceAlpha" result="shadowOffsetOuter1"></feOffset>
            <feGaussianBlur stdDeviation="1" in="shadowOffsetOuter1" result="shadowBlurOuter1"></feGaussianBlur>
            <feColorMatrix values="0 0 0 0 0   0 0 0 0 0   0 0 0 0 0  0 0 0 0.5 0" type="matrix" in="shadowBlurOuter1"></feColorMatrix>
        </filter>
    </defs>
    <g id="UI" stroke="none" stroke-width="1" fill="none" fill-rule="evenodd">
        <g id="home" transform="translate(-567.000000, -216.000000)">
            <g id="Hero" transform="translate(-175.000000, -60.000000)">
                <g id="Text" transform="translate(497.000000, 277.000000)">
                    <g id="Logo" transform="translate(245.000000, 0.000000)">
                        <g id="Group">
                            <g id="JSCONF">
                                <use fill="black" fill-opacity="1" filter="url(#filter-2)" xlink:href="#path-1"></use>
                                <use fill="#FFFFFF" fill-rule="evenodd" xlink:href="#path-1"></use>
                            </g>
                            <g id="Layered-Logo" transform="translate(0.000000, 27.000000)">
                                <g id="Tahoe" transform="translate(0.000000, 3.000000)" fill="#000000">
                                    <path d="M49.9295912,1.05190821 L57.4212982,1.42858622 L64.9130052,1.42858622 C66.3639203,1.42858622 67.4241886,2.09822931 68.0938417,3.43753558 L67.6753106,3.81421359 C68.9867147,3.89792023 69.6424068,4.28854537 69.6424068,4.98610072 L69.6424068,5.40463184 L65.3315363,5.40463184 L65.3315363,5.78130984 L66.8801015,5.78130984 L66.8801015,6.57651897 L66.1267455,6.57651897 L66.5034235,6.99505008 L66.1267455,7.37172809 L66.1267455,8.16693721 L68.0938417,8.54361522 L68.0938417,8.96214634 L67.6753106,9.33882434 L67.6753106,9.75735546 C69.2657368,9.75735546 70.060938,10.8036728 70.060938,12.8963388 C71.1212221,13.0358499 71.6513562,13.4264751 71.6513562,14.068226 L71.6513562,14.8634351 L48.3391729,17.6257405 C46.3581157,17.6257405 44.7816643,20.1229512 43.6097713,25.1174475 C29.7144687,52.1825951 21.4136846,69.4259047 18.7071698,76.8478937 C17.1167436,78.4383199 15.8053592,79.233521 14.7729773,79.233521 L13.182559,77.6431028 C11.6200351,77.6431028 10.8387848,76.9874106 10.8387848,75.6760065 L10.4202537,76.0945377 L10.0435757,76.0945377 C9.98777122,75.4248845 8.67638684,74.2390582 6.10938314,72.5370232 L4.8956429,70.5280738 C4.8956429,65.2266531 11.2153996,51.1501973 23.8551025,28.298284 L27.035939,20.806577 L12.3873499,23.1503512 C6.86271153,23.1503512 3.17967453,20.6531405 1.3381284,15.6586442 L0.16624127,10.9292426 L0.16624127,10.1340335 C0.16624127,8.45990063 1.2125586,6.88344918 3.30522465,5.40463184 L8.4531574,5.40463184 C16.7122128,5.40463184 30.5375524,3.95373847 49.9295912,1.05190821 Z" id="T"></path>
                                    <path d="M84.9857576,4.86054138 C91.7101912,4.86054138 95.8257061,6.85551976 97.3324256,10.8455364 C98.1973942,14.3891176 99.2437116,21.42037 100.471409,31.9395047 L100.848087,32.3161827 C100.987598,33.9624133 101.336371,34.7855163 101.894415,34.7855163 L113.152902,33.3625105 L113.152902,34.0740134 L113.52958,34.0740134 L119.137897,33.7391885 L119.137897,34.4088383 L116.668563,35.1203412 L116.668563,35.4970192 L119.137897,35.4970192 L121.60723,35.1203412 L121.60723,35.8318441 C119.20764,36.7805194 117.33822,37.2548499 115.998913,37.2548499 L115.998913,37.9663528 L117.756744,37.5896748 C119.375073,38.0640124 120.184225,38.538343 120.184225,39.0126806 L121.983908,38.6360026 C126.67148,38.7755137 129.015231,39.2498442 129.015231,40.0590084 L128.638553,40.3938333 L131.107887,41.1053362 L131.107887,41.8168391 C127.927034,43.4630697 121.356162,44.8721104 111.395071,46.0440034 L105.075251,47.0903312 C108.116593,59.0324788 109.63724,67.1379504 109.63724,71.4069891 L109.63724,72.7881418 L108.590913,73.8763227 L108.214235,73.8763227 C107.432973,73.8763227 106.623821,73.5135994 105.786754,72.7881418 L105.786754,73.8763227 L105.075251,73.8763227 L105.075251,73.1648198 L103.98707,73.8763227 L102.605918,72.7881418 L99.0902563,74.2111476 L96.2442447,71.4069891 C95.0723517,69.5096386 93.3145386,62.5760424 90.9707526,50.6059926 L90.6359277,50.6059926 C75.8477543,54.6797158 68.4537785,57.8605205 68.4537785,60.1485021 C67.5051032,60.7344486 64.6870218,64.361682 59.9994499,71.0303111 C58.3811215,72.9276617 57.083688,73.8763227 56.1071105,73.8763227 L55.3956076,72.118492 L55.0607827,72.4533169 L54.7259578,72.4533169 C53.3029449,71.6162505 52.5914491,70.6815404 52.5914491,69.6491584 L52.2566242,69.9839833 L51.5451213,69.9839833 L51.5451213,69.2724804 C50.5685438,69.2724804 49.6338337,68.5749355 48.7409628,67.1798248 C47.7922875,67.1798248 47.317957,66.9426596 47.317957,66.4683219 L47.317957,63.9989883 C47.317957,61.3761802 50.1360384,57.037451 55.7722856,50.9826706 C58.171876,46.992654 62.0502256,41.4680985 67.4074507,34.4088383 L79.3774407,13.31487 L81.8049211,6.24169407 C83.0605208,5.32092101 84.120789,4.86054138 84.9857576,4.86054138 Z M82.1815991,39.0126806 L82.1815991,39.3475055 C86.1716157,38.3151236 88.1665941,37.6175787 88.1665941,37.2548499 L87.1202663,31.6046798 C86.4785154,31.883702 84.8323095,34.3530109 82.1815991,39.0126806 Z M114.910733,33.0276856 L115.622235,33.0276856 L115.622235,33.7391885 L114.910733,33.7391885 L114.910733,33.0276856 Z M115.287411,35.4970192 L115.287411,35.8318441 L115.998913,35.8318441 L115.998913,35.4970192 L115.287411,35.4970192 Z" id="a"></path>
                                    <path d="M148.532732,1.54856514 C152.299531,1.54856514 156.359243,4.67356623 160.711988,10.9236622 C160.711988,13.1279371 158.744911,17.7038316 154.810699,24.6514828 L151.295038,32.4780148 L152.090247,32.4780148 L175.988374,26.200048 C179.559857,17.0481218 183.34055,9.22166814 187.330567,2.72045227 L191.26476,1.54856514 C194.16659,1.63227178 197.821725,4.11553158 202.230275,8.99841904 L202.230275,11.3421933 C202.230275,13.2116416 199.621457,18.1642103 194.403743,26.200048 C192.813317,30.1900646 192.018116,32.9383914 192.018116,34.445111 L193.190003,35.6169981 L193.190003,36.4122073 L188.502454,38.7559815 C188.502454,39.5372435 187.986271,39.9278687 186.953889,39.9278687 L186.953889,40.3045467 L187.330567,40.7230778 L187.330567,41.0997558 C186.884132,41.0997558 186.493506,41.8810061 186.15868,43.44353 C185.489027,43.44353 184.568267,44.8804725 183.396374,47.7544006 L183.019696,47.7544006 L182.643018,47.3777226 L182.224487,47.3777226 C182.224487,49.5540952 180.927054,50.8515287 178.332148,51.2700619 L178.708826,51.6885931 L178.708826,52.4838022 C177.927564,52.4838022 177.536939,52.8744273 177.536939,53.6556893 L176.74173,53.6556893 L176.365052,55.2042545 L176.74173,55.5809325 L176.74173,56.3761416 L176.365052,56.3761416 L175.193165,55.9994636 L175.193165,57.1713507 L174.816487,57.1713507 L175.193165,57.5480287 L175.193165,57.9665598 C173.100499,60.0034215 171.663556,63.2679315 170.882294,67.760188 C170.882294,69.0157876 170.101044,70.7038463 168.53852,72.8244145 L168.119989,72.8244145 L167.743311,72.4477365 L167.366633,72.4477365 L166.194746,73.6196236 C166.194746,73.0894816 164.757803,72.6988564 161.883875,72.4477365 L161.465344,70.8573183 L161.088666,71.2758494 L160.711988,71.2758494 C159.930726,70.3271741 159.540101,69.2808568 159.540101,68.136866 C159.540101,63.2260763 161.758294,56.4319891 166.194746,47.7544006 L168.119989,43.066852 L167.743311,43.066852 L139.952844,50.0981748 C139.338996,51.688601 138.808862,52.4838022 138.362426,52.4838022 L137.985748,52.0652711 L137.567217,52.0652711 C135.753573,54.1300349 133.926006,58.1757953 132.084459,64.2026735 L127.020233,72.0710585 L126.601702,72.0710585 L126.601702,71.2758494 L125.053137,72.4477365 L119.570379,70.4806403 C119.570379,69.1692362 118.914687,68.513544 117.603283,68.513544 L117.603283,66.1697697 C117.603283,63.1842328 120.35161,56.5296546 125.848346,46.2058354 L126.225024,44.2387392 C125.443762,43.9876192 125.053137,43.206369 125.053137,41.8949649 L125.053137,38.7559815 C129.405882,36.4959022 131.889142,34.1382005 132.502991,31.6828056 L140.7062,12.0955493 L140.329522,11.7188713 L140.329522,11.3421933 L143.845184,3.51566139 L148.532732,1.54856514 Z" id="H"></path>
                                    <path d="M250.634794,1.67412447 L251.053325,1.67412447 C253.704035,1.67412447 256.382608,4.22713876 259.089122,9.33324393 L259.507653,9.75177505 L259.507653,11.6351651 C259.507653,12.8349603 257.498724,13.8673267 253.480805,14.7322954 L253.480805,15.1089734 C259.647195,22.75418 262.730343,29.9109906 262.730343,36.5796197 L262.730343,38.5048629 C262.730343,55.0229736 255.615385,65.6396068 241.385256,70.3550809 C236.530271,71.6385828 232.512412,72.2803241 229.33156,72.2803241 L224.89513,72.2803241 C212.394938,72.2803241 203.396609,65.8908129 197.899873,53.1115989 C197.118611,52.9441856 196.588477,50.6422875 196.309455,46.2058354 L196.309455,43.4853832 C196.309455,31.0968001 205.293833,19.8523765 223.262859,9.75177505 C234.61906,4.36664774 243.742947,1.67412447 250.634794,1.67412447 Z M211.209162,46.9591914 L211.209162,47.3358694 C211.209162,51.7723215 214.027244,54.3253358 219.663491,54.9949889 L222.886181,54.9949889 C231.563769,54.9949889 239.613437,50.0145184 247.035426,40.053428 C248.179417,37.4306199 248.974618,33.9707972 249.421053,29.6738563 C249.169934,26.1023729 248.779308,23.9260328 248.249166,23.1447708 L248.625844,22.0147368 C247.900387,18.1642313 247.370253,16.2390074 247.035426,16.2390074 C239.1391,17.2992915 230.015212,22.419271 219.663491,31.5990994 C214.027244,37.0679334 211.209162,42.1879128 211.209162,46.9591914 Z" id="o"></path>
                                    <path d="M319.815197,3.09713027 C319.815197,4.04580555 320.289528,4.52013607 321.238203,4.52013607 L321.238203,5.23163897 L320.150022,5.23163897 L320.150022,5.60831698 C321.349817,5.60831698 321.949706,5.84548224 321.949706,6.31981988 L321.949706,6.69649789 L320.5267,6.69649789 C320.5267,7.42195545 321.238196,7.78467879 322.661209,7.78467879 L322.661209,8.49618169 L321.573028,8.49618169 L321.573028,8.83100659 L325.883898,8.83100659 L329.148441,10.6306904 L328.771763,11.0073684 L328.771763,11.3421933 C329.971558,11.3421933 330.571447,11.5933095 330.571447,12.0955493 C330.571447,12.9605179 326.135062,13.909179 317.262157,14.9415609 C314.248718,14.9415609 308.514899,16.6156686 300.060529,19.9639343 L296.084483,27.8741725 L296.461161,27.8741725 C297.744663,27.3998348 301.455602,27.0371115 307.594089,26.7859915 L308.305592,27.8741725 L307.217411,28.2508505 L307.217411,28.5856754 C309.142663,28.5856754 310.105275,28.8228406 310.105275,29.2971783 L308.305592,30.0505343 L308.305592,30.3853592 L309.017094,30.3853592 L308.68227,31.4735401 C308.68227,32.6733353 309.630931,33.6359472 311.528281,34.3614048 L311.528281,34.6962297 L311.193456,35.0729077 L311.193456,35.4077326 C312.393251,35.4077326 312.99314,35.6588487 312.99314,36.1610886 L312.99314,36.4959135 C312.99314,37.221371 305.445704,39.132644 290.350607,42.2297898 C288.481158,42.2297898 286.081604,45.8291214 283.151871,53.0278926 L309.017094,48.7170221 L309.017094,49.428525 L309.393772,49.428525 L311.193456,49.051847 C311.500381,50.2516422 312.100269,50.8515308 312.99314,50.8515308 L312.99314,51.9397117 C312.407194,51.9397117 311.807305,52.3024351 311.193456,53.0278926 L310.4401,53.0278926 L310.4401,53.3627175 L312.616462,53.3627175 L312.616462,54.1160735 L310.816778,54.1160735 L311.193456,54.4508984 L311.193456,54.8275765 L310.816778,55.1624013 C314.360359,55.1624013 316.271632,55.7622899 316.550655,56.9620852 L316.21583,57.3387632 C317.415625,57.5061764 318.015513,57.8688998 318.015513,58.4269441 C315.894945,59.7941526 308.710233,61.5798675 296.461161,63.7841424 C282.091521,66.211635 274.906808,68.3740241 274.906808,70.2713747 C274.571982,71.5269743 273.497763,72.6011935 271.684119,73.4940643 L271.307441,73.4940643 L269.172932,71.6943805 L268.419576,71.6943805 L266.619892,72.0710585 C266.619892,71.4572098 265.434066,70.8573212 263.062378,70.2713747 L261.974197,70.6061996 L261.597519,70.2713747 L261.597519,69.8946967 L261.974197,68.8065158 L261.262694,68.8065158 L260.886016,69.1831938 L260.551191,69.1831938 L260.174513,68.8065158 L260.174513,68.4716909 C262.15557,61.3566263 271.01439,41.2394318 286.751239,8.11950369 C286.751239,5.71991328 288.425347,4.28297081 291.773612,3.80863317 L305.794405,4.18531118 L319.815197,3.09713027 Z" id="e"></path>
                                </g>
                                <g id="Tahoe" fill="#FFFFFF">
                                    <path d="M49.9295912,0.0519082098 L57.4212982,0.428586216 L64.9130052,0.428586216 C66.3639203,0.428586216 67.4241886,1.09822931 68.0938417,2.43753558 L67.6753106,2.81421359 C68.9867147,2.89792023 69.6424068,3.28854537 69.6424068,3.98610072 L69.6424068,4.40463184 L65.3315363,4.40463184 L65.3315363,4.78130984 L66.8801015,4.78130984 L66.8801015,5.57651897 L66.1267455,5.57651897 L66.5034235,5.99505008 L66.1267455,6.37172809 L66.1267455,7.16693721 L68.0938417,7.54361522 L68.0938417,7.96214634 L67.6753106,8.33882434 L67.6753106,8.75735546 C69.2657368,8.75735546 70.060938,9.80367279 70.060938,11.8963388 C71.1212221,12.0358499 71.6513562,12.4264751 71.6513562,13.068226 L71.6513562,13.8634351 L48.3391729,16.6257405 C46.3581157,16.6257405 44.7816643,19.1229512 43.6097713,24.1174475 C29.7144687,51.1825951 21.4136846,68.4259047 18.7071698,75.8478937 C17.1167436,77.4383199 15.8053592,78.233521 14.7729773,78.233521 L13.182559,76.6431028 C11.6200351,76.6431028 10.8387848,75.9874106 10.8387848,74.6760065 L10.4202537,75.0945377 L10.0435757,75.0945377 C9.98777122,74.4248845 8.67638684,73.2390582 6.10938314,71.5370232 L4.8956429,69.5280738 C4.8956429,64.2266531 11.2153996,50.1501973 23.8551025,27.298284 L27.035939,19.806577 L12.3873499,22.1503512 C6.86271153,22.1503512 3.17967453,19.6531405 1.3381284,14.6586442 L0.16624127,9.92924259 L0.16624127,9.13403347 C0.16624127,7.45990063 1.2125586,5.88344918 3.30522465,4.40463184 L8.4531574,4.40463184 C16.7122128,4.40463184 30.5375524,2.95373847 49.9295912,0.0519082098 Z" id="T"></path>
                                    <path d="M84.9857576,3.86054138 C91.7101912,3.86054138 95.8257061,5.85551976 97.3324256,9.84553637 C98.1973942,13.3891176 99.2437116,20.42037 100.471409,30.9395047 L100.848087,31.3161827 C100.987598,32.9624133 101.336371,33.7855163 101.894415,33.7855163 L113.152902,32.3625105 L113.152902,33.0740134 L113.52958,33.0740134 L119.137897,32.7391885 L119.137897,33.4088383 L116.668563,34.1203412 L116.668563,34.4970192 L119.137897,34.4970192 L121.60723,34.1203412 L121.60723,34.8318441 C119.20764,35.7805194 117.33822,36.2548499 115.998913,36.2548499 L115.998913,36.9663528 L117.756744,36.5896748 C119.375073,37.0640124 120.184225,37.538343 120.184225,38.0126806 L121.983908,37.6360026 C126.67148,37.7755137 129.015231,38.2498442 129.015231,39.0590084 L128.638553,39.3938333 L131.107887,40.1053362 L131.107887,40.8168391 C127.927034,42.4630697 121.356162,43.8721104 111.395071,45.0440034 L105.075251,46.0903312 C108.116593,58.0324788 109.63724,66.1379504 109.63724,70.4069891 L109.63724,71.7881418 L108.590913,72.8763227 L108.214235,72.8763227 C107.432973,72.8763227 106.623821,72.5135994 105.786754,71.7881418 L105.786754,72.8763227 L105.075251,72.8763227 L105.075251,72.1648198 L103.98707,72.8763227 L102.605918,71.7881418 L99.0902563,73.2111476 L96.2442447,70.4069891 C95.0723517,68.5096386 93.3145386,61.5760424 90.9707526,49.6059926 L90.6359277,49.6059926 C75.8477543,53.6797158 68.4537785,56.8605205 68.4537785,59.1485021 C67.5051032,59.7344486 64.6870218,63.361682 59.9994499,70.0303111 C58.3811215,71.9276617 57.083688,72.8763227 56.1071105,72.8763227 L55.3956076,71.118492 L55.0607827,71.4533169 L54.7259578,71.4533169 C53.3029449,70.6162505 52.5914491,69.6815404 52.5914491,68.6491584 L52.2566242,68.9839833 L51.5451213,68.9839833 L51.5451213,68.2724804 C50.5685438,68.2724804 49.6338337,67.5749355 48.7409628,66.1798248 C47.7922875,66.1798248 47.317957,65.9426596 47.317957,65.4683219 L47.317957,62.9989883 C47.317957,60.3761802 50.1360384,56.037451 55.7722856,49.9826706 C58.171876,45.992654 62.0502256,40.4680985 67.4074507,33.4088383 L79.3774407,12.31487 L81.8049211,5.24169407 C83.0605208,4.32092101 84.120789,3.86054138 84.9857576,3.86054138 Z M82.1815991,38.0126806 L82.1815991,38.3475055 C86.1716157,37.3151236 88.1665941,36.6175787 88.1665941,36.2548499 L87.1202663,30.6046798 C86.4785154,30.883702 84.8323095,33.3530109 82.1815991,38.0126806 Z M114.910733,32.0276856 L115.622235,32.0276856 L115.622235,32.7391885 L114.910733,32.7391885 L114.910733,32.0276856 Z M115.287411,34.4970192 L115.287411,34.8318441 L115.998913,34.8318441 L115.998913,34.4970192 L115.287411,34.4970192 Z" id="a"></path>
                                    <path d="M148.532732,0.548565136 C152.299531,0.548565136 156.359243,3.67356623 160.711988,9.92366218 C160.711988,12.1279371 158.744911,16.7038316 154.810699,23.6514828 L151.295038,31.4780148 L152.090247,31.4780148 L175.988374,25.200048 C179.559857,16.0481218 183.34055,8.22166814 187.330567,1.72045227 L191.26476,0.548565136 C194.16659,0.632271778 197.821725,3.11553158 202.230275,7.99841904 L202.230275,10.3421933 C202.230275,12.2116416 199.621457,17.1642103 194.403743,25.200048 C192.813317,29.1900646 192.018116,31.9383914 192.018116,33.445111 L193.190003,34.6169981 L193.190003,35.4122073 L188.502454,37.7559815 C188.502454,38.5372435 187.986271,38.9278687 186.953889,38.9278687 L186.953889,39.3045467 L187.330567,39.7230778 L187.330567,40.0997558 C186.884132,40.0997558 186.493506,40.8810061 186.15868,42.44353 C185.489027,42.44353 184.568267,43.8804725 183.396374,46.7544006 L183.019696,46.7544006 L182.643018,46.3777226 L182.224487,46.3777226 C182.224487,48.5540952 180.927054,49.8515287 178.332148,50.2700619 L178.708826,50.6885931 L178.708826,51.4838022 C177.927564,51.4838022 177.536939,51.8744273 177.536939,52.6556893 L176.74173,52.6556893 L176.365052,54.2042545 L176.74173,54.5809325 L176.74173,55.3761416 L176.365052,55.3761416 L175.193165,54.9994636 L175.193165,56.1713507 L174.816487,56.1713507 L175.193165,56.5480287 L175.193165,56.9665598 C173.100499,59.0034215 171.663556,62.2679315 170.882294,66.760188 C170.882294,68.0157876 170.101044,69.7038463 168.53852,71.8244145 L168.119989,71.8244145 L167.743311,71.4477365 L167.366633,71.4477365 L166.194746,72.6196236 C166.194746,72.0894816 164.757803,71.6988564 161.883875,71.4477365 L161.465344,69.8573183 L161.088666,70.2758494 L160.711988,70.2758494 C159.930726,69.3271741 159.540101,68.2808568 159.540101,67.136866 C159.540101,62.2260763 161.758294,55.4319891 166.194746,46.7544006 L168.119989,42.066852 L167.743311,42.066852 L139.952844,49.0981748 C139.338996,50.688601 138.808862,51.4838022 138.362426,51.4838022 L137.985748,51.0652711 L137.567217,51.0652711 C135.753573,53.1300349 133.926006,57.1757953 132.084459,63.2026735 L127.020233,71.0710585 L126.601702,71.0710585 L126.601702,70.2758494 L125.053137,71.4477365 L119.570379,69.4806403 C119.570379,68.1692362 118.914687,67.513544 117.603283,67.513544 L117.603283,65.1697697 C117.603283,62.1842328 120.35161,55.5296546 125.848346,45.2058354 L126.225024,43.2387392 C125.443762,42.9876192 125.053137,42.206369 125.053137,40.8949649 L125.053137,37.7559815 C129.405882,35.4959022 131.889142,33.1382005 132.502991,30.6828056 L140.7062,11.0955493 L140.329522,10.7188713 L140.329522,10.3421933 L143.845184,2.51566139 L148.532732,0.548565136 Z" id="H"></path>
                                    <path d="M250.634794,0.674124472 L251.053325,0.674124472 C253.704035,0.674124472 256.382608,3.22713876 259.089122,8.33324393 L259.507653,8.75177505 L259.507653,10.6351651 C259.507653,11.8349603 257.498724,12.8673267 253.480805,13.7322954 L253.480805,14.1089734 C259.647195,21.75418 262.730343,28.9109906 262.730343,35.5796197 L262.730343,37.5048629 C262.730343,54.0229736 255.615385,64.6396068 241.385256,69.3550809 C236.530271,70.6385828 232.512412,71.2803241 229.33156,71.2803241 L224.89513,71.2803241 C212.394938,71.2803241 203.396609,64.8908129 197.899873,52.1115989 C197.118611,51.9441856 196.588477,49.6422875 196.309455,45.2058354 L196.309455,42.4853832 C196.309455,30.0968001 205.293833,18.8523765 223.262859,8.75177505 C234.61906,3.36664774 243.742947,0.674124472 250.634794,0.674124472 Z M211.209162,45.9591914 L211.209162,46.3358694 C211.209162,50.7723215 214.027244,53.3253358 219.663491,53.9949889 L222.886181,53.9949889 C231.563769,53.9949889 239.613437,49.0145184 247.035426,39.053428 C248.179417,36.4306199 248.974618,32.9707972 249.421053,28.6738563 C249.169934,25.1023729 248.779308,22.9260328 248.249166,22.1447708 L248.625844,21.0147368 C247.900387,17.1642313 247.370253,15.2390074 247.035426,15.2390074 C239.1391,16.2992915 230.015212,21.419271 219.663491,30.5990994 C214.027244,36.0679334 211.209162,41.1879128 211.209162,45.9591914 Z" id="o"></path>
                                    <path d="M319.815197,2.09713027 C319.815197,3.04580555 320.289528,3.52013607 321.238203,3.52013607 L321.238203,4.23163897 L320.150022,4.23163897 L320.150022,4.60831698 C321.349817,4.60831698 321.949706,4.84548224 321.949706,5.31981988 L321.949706,5.69649789 L320.5267,5.69649789 C320.5267,6.42195545 321.238196,6.78467879 322.661209,6.78467879 L322.661209,7.49618169 L321.573028,7.49618169 L321.573028,7.83100659 L325.883898,7.83100659 L329.148441,9.6306904 L328.771763,10.0073684 L328.771763,10.3421933 C329.971558,10.3421933 330.571447,10.5933095 330.571447,11.0955493 C330.571447,11.9605179 326.135062,12.909179 317.262157,13.9415609 C314.248718,13.9415609 308.514899,15.6156686 300.060529,18.9639343 L296.084483,26.8741725 L296.461161,26.8741725 C297.744663,26.3998348 301.455602,26.0371115 307.594089,25.7859915 L308.305592,26.8741725 L307.217411,27.2508505 L307.217411,27.5856754 C309.142663,27.5856754 310.105275,27.8228406 310.105275,28.2971783 L308.305592,29.0505343 L308.305592,29.3853592 L309.017094,29.3853592 L308.68227,30.4735401 C308.68227,31.6733353 309.630931,32.6359472 311.528281,33.3614048 L311.528281,33.6962297 L311.193456,34.0729077 L311.193456,34.4077326 C312.393251,34.4077326 312.99314,34.6588487 312.99314,35.1610886 L312.99314,35.4959135 C312.99314,36.221371 305.445704,38.132644 290.350607,41.2297898 C288.481158,41.2297898 286.081604,44.8291214 283.151871,52.0278926 L309.017094,47.7170221 L309.017094,48.428525 L309.393772,48.428525 L311.193456,48.051847 C311.500381,49.2516422 312.100269,49.8515308 312.99314,49.8515308 L312.99314,50.9397117 C312.407194,50.9397117 311.807305,51.3024351 311.193456,52.0278926 L310.4401,52.0278926 L310.4401,52.3627175 L312.616462,52.3627175 L312.616462,53.1160735 L310.816778,53.1160735 L311.193456,53.4508984 L311.193456,53.8275765 L310.816778,54.1624013 C314.360359,54.1624013 316.271632,54.7622899 316.550655,55.9620852 L316.21583,56.3387632 C317.415625,56.5061764 318.015513,56.8688998 318.015513,57.4269441 C315.894945,58.7941526 308.710233,60.5798675 296.461161,62.7841424 C282.091521,65.211635 274.906808,67.3740241 274.906808,69.2713747 C274.571982,70.5269743 273.497763,71.6011935 271.684119,72.4940643 L271.307441,72.4940643 L269.172932,70.6943805 L268.419576,70.6943805 L266.619892,71.0710585 C266.619892,70.4572098 265.434066,69.8573212 263.062378,69.2713747 L261.974197,69.6061996 L261.597519,69.2713747 L261.597519,68.8946967 L261.974197,67.8065158 L261.262694,67.8065158 L260.886016,68.1831938 L260.551191,68.1831938 L260.174513,67.8065158 L260.174513,67.4716909 C262.15557,60.3566263 271.01439,40.2394318 286.751239,7.11950369 C286.751239,4.71991328 288.425347,3.28297081 291.773612,2.80863317 L305.794405,3.18531118 L319.815197,2.09713027 Z" id="e"></path>
                                </g>
                            </g>
                        </g>
                    </g>
                </g>
            </g>
        </g>
    </g>
</svg>